<svg xmlns="http://www.w3.org/2000/svg" width="32" height="32" viewBox="0 0 16 16"><!-- Icon from Nonicons by yamatsum - https://github.com/yamatsum/nonicons/blob/master/LICENSE --><path fill="rgba(255, 255, 255, 0.2)" d="M4.129 5.548a2.58 2.58 0 1 0 2.463 3.355H4.645a.774.774 0 0 1 0-1.548h3.17A4.13 4.13 0 0 1 16 8.129a4.13 4.13 0 0 1-8 1.44a4.13 4.13 0 0 1-8-1.44a4.129 4.129 0 0 1 6.353-3.48a.774.774 0 1 1-.835 1.305a2.57 2.57 0 0 0-1.389-.406m7.742 0a2.58 2.58 0 1 0 0 5.162a2.58 2.58 0 0 0 0-5.162"/></svg>