<svg version="1.2" xmlns="http://www.w3.org/2000/svg" viewBox="0 0 462 462" width="462" height="462"><path fill-rule="evenodd" fill="#fff" d="m460.5 300.1l-60.4 5.1c-20.4 40.8-53.6 74.1-94.3 94.6l-5 60c-0.2 1.7-2.4 2.1-3.2 0.6l-23.1-47.8q-6.3 1.9-12.7 3.5c-16.2 4-33.2 6.2-50.7 6.2-89 0-165.4-55.5-196.4-133.7-2.6-6.7-4.9-13.6-6.9-20.6-5.1-18.1-7.8-37.2-7.8-56.8 0-116.5 94.7-211.1 211.1-211.1 28.7 0 56.1 5.7 81 16.1q10.1 4.2 19.6 9.4c65.8 35.8 110.5 105.5 110.5 185.6 0 17.2-2.1 34-6 50q-1.5 6.3-3.4 12.5l48.3 23.4c1.5 0.7 1.1 2.9-0.6 3zm-417.4-6.7c26.4 13.4 56.2 20.9 87.7 20.9 30 0 58.5-6.8 83.9-19q1.2-0.6 2.5-1.2l-69.3-143.2q0-0.1 0-0.1c-0.7-0.9-0.5-2.2 0.3-3.1l0.1-0.1c0.9-0.9 2.2-1 3.1-0.3q0 0 0.1 0l147 71.1q0.5-1 1.1-1.9c16.4-28.5 25.7-61.5 25.7-96.7 0-23.2-4-45.4-11.5-66.1q-0.9-2.5-1.9-5-3.4-2-6.8-4c-27.8-15.7-59.8-24.7-94-24.7-105.4 0-191.2 85.7-191.2 191.2 0 25.9 5.2 50.6 14.6 73.2q1.2 2.9 2.5 5.7 3 1.7 6.1 3.3zm222.6 101l-42.8-88.4c-1 0.5-2 1-3 1.5-27 12.8-57.2 20.1-89.1 20.1-27.9 0-54.4-5.5-78.7-15.5q-2.2-1-4.5-1.9c33.6 55.2 94.3 92.2 163.5 92.2 14.7 0 29-1.7 42.7-4.9q6-1.3 11.9-3.1zm110.7-87.2l-49.9 4.3-139.2-128.3c-0.9-0.5-2.1-0.3-2.9 0.5l-0.1 0.1c-0.8 0.8-1 1.9-0.5 2.9l128.3 139.2-4.3 50.2c28.3-16.7 52-40.5 68.6-68.9zm26-96c0-60.4-28.2-114.3-72-149.3q0.4 1.5 0.9 3.1c4.8 17.4 7.3 35.8 7.3 54.8 0 37-9.7 71.8-26.8 101.9q-0.7 1.3-1.4 2.5l84.2 40.7c1.2-3.8 2.2-7.7 3.1-11.6 3-13.6 4.7-27.7 4.7-42.1z"/></svg>