<svg version="1.2" xmlns="http://www.w3.org/2000/svg" viewBox="0 0 588 261" width="588" height="261"><defs><clipPath clipPathUnits="userSpaceOnUse" id="cp1"><path d="m385.36 84.26l21.99 132.22c63.39-18.42 123.67-45.61 178.36-84.23l-48.8-36.72 28.01-95.24c-55.42 39.11-116.05 65.81-179.56 83.97z"/></clipPath><clipPath clipPathUnits="userSpaceOnUse" id="cp2"><path d="m109.14 120.2c-36.32-3.01-72.53-7.27-108.64-12.36v134.25c65.14 9.06 130.56 15.2 196.12 16.34 104.83 1.83 208.25-14.8 302.48-61.33v-133.59c-121.64 60-256.15 67.78-389.96 56.69z"/></clipPath><clipPath clipPathUnits="userSpaceOnUse" id="cp3"><path d="m109.14 120.2c-36.32-3.01-72.53-7.27-108.64-12.36v134.25c65.14 9.06 130.56 15.2 196.12 16.34 104.83 1.83 208.25-14.8 302.48-61.33v-133.59c-121.64 60-256.15 67.78-389.96 56.69z"/></clipPath></defs><style>.a{fill:#232323}.b{fill:#fff}.c{fill:#268024}.d{fill:#161616}.e{fill:#e4312b}</style><g clip-path="url(#cp1)"><path class="a" d="m575.7-7.5c-69.3 51.5-147.2 82.8-228.9 101.7q3.2 11.3 6.2 22.7 2.8 10.5 5.4 20.9c80.6-19 156.9-51.1 224.3-101.2 5.8-4.3-12.3-40.2-7-44.1z"/><path class="b" d="m582.7 37c-67.9 50.6-144.2 81.7-224.3 100.6q5.6 21.9 10.9 43.9c79.1-19.2 154.1-51 220.4-100.4 5.8-4.3-12.3-40.2-7-44.1z"/><path class="c" d="m589.6 80.4c-67 49.8-141.9 80.7-220.7 99.8 3.6 14.6 7.1 29.2 10.6 43.8 77.8-19.2 151.7-50.8 217-99.5 5.8-4.3-12.2-40.2-6.9-44.1z"/></g><g style="opacity:.2"><path class="d" d="m385.4 84.3l22 132.2c63.3-18.4 123.6-45.6 178.3-84.3l-48.8-36.7 28-95.2c-55.4 39.1-116 65.8-179.5 84z"/></g><path class="d" d="m385.4 84.3l22 132.2c63.3-18.4 91.7-153 91.7-153-54.6 16.7-91.5 18.8-113.7 20.8z"/><g clip-path="url(#cp2)"><path class="a" d="m511 57.5c-124.7 65.5-263.7 74.2-401.9 62.7-38.7-3.2-77.4-7.8-115.9-13.4-0.2 15-0.8 30-1.8 45 68.2 9.8 136.6 16.4 205.2 17.6 109.3 1.9 217-16.1 314.4-67.3 6.4-3.3-5.9-41.6 0-44.6z"/><path class="b" d="m511 102.5c-124.7 65.6-263.7 74.2-401.9 62.8-39.3-3.3-78.5-8-117.7-13.7-0.9 15-2 29.9-3.3 44.9 69.3 10 138.8 16.8 208.5 18 109.3 1.9 217-16.1 314.4-67.3 6.4-3.3-5.9-41.6 0-44.7z"/><path class="c" d="m511 146.5c-124.7 65.5-263.7 74.1-401.9 62.7-40.4-3.3-80.7-8.3-120.8-14.1-1.3 14.9-2.5 29.9-3.7 44.8 70.4 10.3 141.1 17.3 212 18.5 109.3 1.9 217-16.1 314.4-67.3 6.4-3.3-5.9-41.6 0-44.6z"/></g><g clip-path="url(#cp3)"><path class="e" d="m-8.8 99.9l99.2 84.8-97.1 61.4z"/></g></svg>