<svg xmlns="http://www.w3.org/2000/svg" version="1.1" xmlns:xlink="http://www.w3.org/1999/xlink" xmlns:svgjs="http://svgjs.com/svgjs" width="1920" height="720" preserveAspectRatio="none" viewBox="0 0 1920 720"><g mask="url(&quot;#SvgjsMask1089&quot;)" fill="none"><rect width="1920" height="720" x="0" y="0" fill="url(#SvgjsLinearGradient1090)"></rect><path d="M-97.56 491.39L-97.56 491.39" stroke="#132e65" stroke-width="1.5"></path><path d="M-97.56 491.39L57.79 509.57" stroke="#132e65" stroke-width="1.5"></path><path d="M-97.56 491.39L-60.39 672.06" stroke="#132e65" stroke-width="1.5"></path><path d="M-97.56 491.39L206.29 549.93" stroke="#132e65" stroke-width="1.5"></path><path d="M-97.56 491.39L-103.62 816.39" stroke="#132e65" stroke-width="1.5"></path><path d="M-60.39 672.06L-60.39 672.06" stroke="#132e65" stroke-width="1.5"></path><path d="M-60.39 672.06L-103.62 816.39" stroke="#132e65" stroke-width="1.5"></path><path d="M-103.62 816.39L-103.62 816.39" stroke="#132e65" stroke-width="1.5"></path><path d="M-103.62 816.39L61.47 848.82" stroke="#132e65" stroke-width="1.5"></path><path d="M57.79 509.57L57.79 509.57" stroke="#132e65" stroke-width="1.5"></path><path d="M57.79 509.57L206.29 549.93" stroke="#132e65" stroke-width="1.5"></path><path d="M57.79 509.57L-60.39 672.06" stroke="#132e65" stroke-width="1.5"></path><path d="M57.79 509.57L213.56 666.39" stroke="#132e65" stroke-width="1.5"></path><path d="M57.79 509.57L366.06 411.29" stroke="#132e65" stroke-width="1.5"></path><path d="M61.47 848.82L61.47 848.82" stroke="#132e65" stroke-width="1.5"></path><path d="M61.47 848.82L-60.39 672.06" stroke="#132e65" stroke-width="1.5"></path><path d="M206.29 549.93L206.29 549.93" stroke="#132e65" stroke-width="1.5"></path><path d="M206.29 549.93L213.56 666.39" stroke="#132e65" stroke-width="1.5"></path><path d="M206.29 549.93L404.22 503.95" stroke="#132e65" stroke-width="1.5"></path><path d="M206.29 549.93L366.06 411.29" stroke="#132e65" stroke-width="1.5"></path><path d="M213.56 666.39L213.56 666.39" stroke="#132e65" stroke-width="1.5"></path><path d="M213.56 666.39L409.85 706.61" stroke="#132e65" stroke-width="1.5"></path><path d="M213.56 666.39L338.9 847.8" stroke="#132e65" stroke-width="1.5"></path><path d="M366.06 411.29L366.06 411.29" stroke="#132e65" stroke-width="1.5"></path><path d="M366.06 411.29L404.22 503.95" stroke="#132e65" stroke-width="1.5"></path><path d="M366.06 411.29L213.56 666.39" stroke="#132e65" stroke-width="1.5"></path><path d="M366.06 411.29L409.85 706.61" stroke="#132e65" stroke-width="1.5"></path><path d="M404.22 503.95L404.22 503.95" stroke="#132e65" stroke-width="1.5"></path><path d="M404.22 503.95L510.4 675.02" stroke="#132e65" stroke-width="1.5"></path><path d="M404.22 503.95L409.85 706.61" stroke="#132e65" stroke-width="1.5"></path><path d="M404.22 503.95L213.56 666.39" stroke="#132e65" stroke-width="1.5"></path><path d="M404.22 503.95L661.18 515.8" stroke="#132e65" stroke-width="1.5"></path><path d="M409.85 706.61L409.85 706.61" stroke="#132e65" stroke-width="1.5"></path><path d="M409.85 706.61L510.4 675.02" stroke="#132e65" stroke-width="1.5"></path><path d="M409.85 706.61L338.9 847.8" stroke="#132e65" stroke-width="1.5"></path><path d="M409.85 706.61L531.84 843.96" stroke="#132e65" stroke-width="1.5"></path><path d="M409.85 706.61L206.29 549.93" stroke="#132e65" stroke-width="1.5"></path><path d="M338.9 847.8L338.9 847.8" stroke="#132e65" stroke-width="1.5"></path><path d="M338.9 847.8L531.84 843.96" stroke="#132e65" stroke-width="1.5"></path><path d="M510.4 675.02L510.4 675.02" stroke="#132e65" stroke-width="1.5"></path><path d="M510.4 675.02L669.71 650.27" stroke="#132e65" stroke-width="1.5"></path><path d="M510.4 675.02L531.84 843.96" stroke="#132e65" stroke-width="1.5"></path><path d="M531.84 843.96L531.84 843.96" stroke="#132e65" stroke-width="1.5"></path><path d="M531.84 843.96L669.71 650.27" stroke="#132e65" stroke-width="1.5"></path><path d="M531.84 843.96L830.3 855.54" stroke="#132e65" stroke-width="1.5"></path><path d="M690.53 362.39L690.53 362.39" stroke="#132e65" stroke-width="1.5"></path><path d="M690.53 362.39L840.67 344.89" stroke="#132e65" stroke-width="1.5"></path><path d="M690.53 362.39L661.18 515.8" stroke="#132e65" stroke-width="1.5"></path><path d="M661.18 515.8L661.18 515.8" stroke="#132e65" stroke-width="1.5"></path><path d="M661.18 515.8L669.71 650.27" stroke="#132e65" stroke-width="1.5"></path><path d="M661.18 515.8L859.78 495.08" stroke="#132e65" stroke-width="1.5"></path><path d="M661.18 515.8L510.4 675.02" stroke="#132e65" stroke-width="1.5"></path><path d="M661.18 515.8L795.66 690.39" stroke="#132e65" stroke-width="1.5"></path><path d="M669.71 650.27L669.71 650.27" stroke="#132e65" stroke-width="1.5"></path><path d="M669.71 650.27L795.66 690.39" stroke="#132e65" stroke-width="1.5"></path><path d="M669.71 650.27L859.78 495.08" stroke="#132e65" stroke-width="1.5"></path><path d="M669.71 650.27L830.3 855.54" stroke="#132e65" stroke-width="1.5"></path><path d="M840.67 344.89L840.67 344.89" stroke="#132e65" stroke-width="1.5"></path><path d="M840.67 344.89L952.43 391.11" stroke="#132e65" stroke-width="1.5"></path><path d="M859.78 495.08L859.78 495.08" stroke="#132e65" stroke-width="1.5"></path><path d="M859.78 495.08L952.43 391.11" stroke="#132e65" stroke-width="1.5"></path><path d="M859.78 495.08L997.43 530.83" stroke="#132e65" stroke-width="1.5"></path><path d="M859.78 495.08L840.67 344.89" stroke="#132e65" stroke-width="1.5"></path><path d="M859.78 495.08L938.86 680.99" stroke="#132e65" stroke-width="1.5"></path><path d="M859.78 495.08L795.66 690.39" stroke="#132e65" stroke-width="1.5"></path><path d="M795.66 690.39L795.66 690.39" stroke="#132e65" stroke-width="1.5"></path><path d="M830.3 855.54L830.3 855.54" stroke="#132e65" stroke-width="1.5"></path><path d="M830.3 855.54L989.82 859.71" stroke="#132e65" stroke-width="1.5"></path><path d="M830.3 855.54L795.66 690.39" stroke="#132e65" stroke-width="1.5"></path><path d="M830.3 855.54L938.86 680.99" stroke="#132e65" stroke-width="1.5"></path><path d="M830.3 855.54L1155.42 833.48" stroke="#132e65" stroke-width="1.5"></path><path d="M952.43 391.11L952.43 391.11" stroke="#132e65" stroke-width="1.5"></path><path d="M952.43 391.11L997.43 530.83" stroke="#132e65" stroke-width="1.5"></path><path d="M952.43 391.11L1106.13 338.53" stroke="#132e65" stroke-width="1.5"></path><path d="M952.43 391.11L1150.58 507.44" stroke="#132e65" stroke-width="1.5"></path><path d="M997.43 530.83L997.43 530.83" stroke="#132e65" stroke-width="1.5"></path><path d="M997.43 530.83L1150.58 507.44" stroke="#132e65" stroke-width="1.5"></path><path d="M938.86 680.99L938.86 680.99" stroke="#132e65" stroke-width="1.5"></path><path d="M938.86 680.99L795.66 690.39" stroke="#132e65" stroke-width="1.5"></path><path d="M938.86 680.99L997.43 530.83" stroke="#132e65" stroke-width="1.5"></path><path d="M989.82 859.71L989.82 859.71" stroke="#132e65" stroke-width="1.5"></path><path d="M989.82 859.71L1155.42 833.48" stroke="#132e65" stroke-width="1.5"></path><path d="M989.82 859.71L938.86 680.99" stroke="#132e65" stroke-width="1.5"></path><path d="M989.82 859.71L1161.99 681.45" stroke="#132e65" stroke-width="1.5"></path><path d="M989.82 859.71L795.66 690.39" stroke="#132e65" stroke-width="1.5"></path><path d="M1132.89 243.84L1132.89 243.84" stroke="#132e65" stroke-width="1.5"></path><path d="M1132.89 243.84L1106.13 338.53" stroke="#132e65" stroke-width="1.5"></path><path d="M1132.89 243.84L1270.9 347.18" stroke="#132e65" stroke-width="1.5"></path><path d="M1132.89 243.84L1306.29 235.24" stroke="#132e65" stroke-width="1.5"></path><path d="M1132.89 243.84L1295 87.22" stroke="#132e65" stroke-width="1.5"></path><path d="M1132.89 243.84L952.43 391.11" stroke="#132e65" stroke-width="1.5"></path><path d="M1132.89 243.84L1150.58 507.44" stroke="#132e65" stroke-width="1.5"></path><path d="M1106.13 338.53L1106.13 338.53" stroke="#132e65" stroke-width="1.5"></path><path d="M1150.58 507.44L1150.58 507.44" stroke="#132e65" stroke-width="1.5"></path><path d="M1150.58 507.44L1242.02 500.6" stroke="#132e65" stroke-width="1.5"></path><path d="M1161.99 681.45L1161.99 681.45" stroke="#132e65" stroke-width="1.5"></path><path d="M1161.99 681.45L1260.94 699.89" stroke="#132e65" stroke-width="1.5"></path><path d="M1161.99 681.45L1155.42 833.48" stroke="#132e65" stroke-width="1.5"></path><path d="M1155.42 833.48L1155.42 833.48" stroke="#132e65" stroke-width="1.5"></path><path d="M1155.42 833.48L1292.15 810.78" stroke="#132e65" stroke-width="1.5"></path><path d="M1155.42 833.48L1260.94 699.89" stroke="#132e65" stroke-width="1.5"></path><path d="M1155.42 833.48L1400.25 829.4" stroke="#132e65" stroke-width="1.5"></path><path d="M1242.71 -69.74L1242.71 -69.74" stroke="#132e65" stroke-width="1.5"></path><path d="M1242.71 -69.74L1295 87.22" stroke="#132e65" stroke-width="1.5"></path><path d="M1242.71 -69.74L1442.61 -71.1" stroke="#132e65" stroke-width="1.5"></path><path d="M1295 87.22L1295 87.22" stroke="#132e65" stroke-width="1.5"></path><path d="M1295 87.22L1306.29 235.24" stroke="#132e65" stroke-width="1.5"></path><path d="M1295 87.22L1443.65 45.53" stroke="#132e65" stroke-width="1.5"></path><path d="M1295 87.22L1404.81 238.72" stroke="#132e65" stroke-width="1.5"></path><path d="M1295 87.22L1442.61 -71.1" stroke="#132e65" stroke-width="1.5"></path><path d="M1306.29 235.24L1306.29 235.24" stroke="#132e65" stroke-width="1.5"></path><path d="M1306.29 235.24L1404.81 238.72" stroke="#132e65" stroke-width="1.5"></path><path d="M1306.29 235.24L1270.9 347.18" stroke="#132e65" stroke-width="1.5"></path><path d="M1306.29 235.24L1437.87 362.39" stroke="#132e65" stroke-width="1.5"></path><path d="M1306.29 235.24L1106.13 338.53" stroke="#132e65" stroke-width="1.5"></path><path d="M1270.9 347.18L1270.9 347.18" stroke="#132e65" stroke-width="1.5"></path><path d="M1270.9 347.18L1242.02 500.6" stroke="#132e65" stroke-width="1.5"></path><path d="M1270.9 347.18L1106.13 338.53" stroke="#132e65" stroke-width="1.5"></path><path d="M1270.9 347.18L1437.87 362.39" stroke="#132e65" stroke-width="1.5"></path><path d="M1242.02 500.6L1242.02 500.6" stroke="#132e65" stroke-width="1.5"></path><path d="M1242.02 500.6L1429.64 530.58" stroke="#132e65" stroke-width="1.5"></path><path d="M1242.02 500.6L1161.99 681.45" stroke="#132e65" stroke-width="1.5"></path><path d="M1242.02 500.6L1260.94 699.89" stroke="#132e65" stroke-width="1.5"></path><path d="M1260.94 699.89L1260.94 699.89" stroke="#132e65" stroke-width="1.5"></path><path d="M1260.94 699.89L1292.15 810.78" stroke="#132e65" stroke-width="1.5"></path><path d="M1260.94 699.89L1400.25 829.4" stroke="#132e65" stroke-width="1.5"></path><path d="M1260.94 699.89L1456.64 661.89" stroke="#132e65" stroke-width="1.5"></path><path d="M1292.15 810.78L1292.15 810.78" stroke="#132e65" stroke-width="1.5"></path><path d="M1292.15 810.78L1400.25 829.4" stroke="#132e65" stroke-width="1.5"></path><path d="M1292.15 810.78L1161.99 681.45" stroke="#132e65" stroke-width="1.5"></path><path d="M1442.61 -71.1L1442.61 -71.1" stroke="#132e65" stroke-width="1.5"></path><path d="M1442.61 -71.1L1443.65 45.53" stroke="#132e65" stroke-width="1.5"></path><path d="M1442.61 -71.1L1566.35 -96.4" stroke="#132e65" stroke-width="1.5"></path><path d="M1442.61 -71.1L1586.33 74.36" stroke="#132e65" stroke-width="1.5"></path><path d="M1443.65 45.53L1443.65 45.53" stroke="#132e65" stroke-width="1.5"></path><path d="M1443.65 45.53L1586.33 74.36" stroke="#132e65" stroke-width="1.5"></path><path d="M1404.81 238.72L1404.81 238.72" stroke="#132e65" stroke-width="1.5"></path><path d="M1404.81 238.72L1437.87 362.39" stroke="#132e65" stroke-width="1.5"></path><path d="M1437.87 362.39L1437.87 362.39" stroke="#132e65" stroke-width="1.5"></path><path d="M1437.87 362.39L1545.35 391.24" stroke="#132e65" stroke-width="1.5"></path><path d="M1437.87 362.39L1541.37 255.78" stroke="#132e65" stroke-width="1.5"></path><path d="M1429.64 530.58L1429.64 530.58" stroke="#132e65" stroke-width="1.5"></path><path d="M1429.64 530.58L1456.64 661.89" stroke="#132e65" stroke-width="1.5"></path><path d="M1429.64 530.58L1571.72 528.69" stroke="#132e65" stroke-width="1.5"></path><path d="M1429.64 530.58L1437.87 362.39" stroke="#132e65" stroke-width="1.5"></path><path d="M1429.64 530.58L1545.35 391.24" stroke="#132e65" stroke-width="1.5"></path><path d="M1429.64 530.58L1575.47 643.89" stroke="#132e65" stroke-width="1.5"></path><path d="M1456.64 661.89L1456.64 661.89" stroke="#132e65" stroke-width="1.5"></path><path d="M1456.64 661.89L1575.47 643.89" stroke="#132e65" stroke-width="1.5"></path><path d="M1456.64 661.89L1540.32 788.1" stroke="#132e65" stroke-width="1.5"></path><path d="M1456.64 661.89L1571.72 528.69" stroke="#132e65" stroke-width="1.5"></path><path d="M1456.64 661.89L1400.25 829.4" stroke="#132e65" stroke-width="1.5"></path><path d="M1400.25 829.4L1400.25 829.4" stroke="#132e65" stroke-width="1.5"></path><path d="M1400.25 829.4L1540.32 788.1" stroke="#132e65" stroke-width="1.5"></path><path d="M1566.35 -96.4L1566.35 -96.4" stroke="#132e65" stroke-width="1.5"></path><path d="M1566.35 -96.4L1586.33 74.36" stroke="#132e65" stroke-width="1.5"></path><path d="M1586.33 74.36L1586.33 74.36" stroke="#132e65" stroke-width="1.5"></path><path d="M1586.33 74.36L1702.32 37.84" stroke="#132e65" stroke-width="1.5"></path><path d="M1541.37 255.78L1541.37 255.78" stroke="#132e65" stroke-width="1.5"></path><path d="M1541.37 255.78L1545.35 391.24" stroke="#132e65" stroke-width="1.5"></path><path d="M1541.37 255.78L1404.81 238.72" stroke="#132e65" stroke-width="1.5"></path><path d="M1545.35 391.24L1545.35 391.24" stroke="#132e65" stroke-width="1.5"></path><path d="M1545.35 391.24L1571.72 528.69" stroke="#132e65" stroke-width="1.5"></path><path d="M1545.35 391.24L1742.15 356.63" stroke="#132e65" stroke-width="1.5"></path><path d="M1545.35 391.24L1404.81 238.72" stroke="#132e65" stroke-width="1.5"></path><path d="M1571.72 528.69L1571.72 528.69" stroke="#132e65" stroke-width="1.5"></path><path d="M1571.72 528.69L1575.47 643.89" stroke="#132e65" stroke-width="1.5"></path><path d="M1571.72 528.69L1741.02 497.49" stroke="#132e65" stroke-width="1.5"></path><path d="M1575.47 643.89L1575.47 643.89" stroke="#132e65" stroke-width="1.5"></path><path d="M1575.47 643.89L1540.32 788.1" stroke="#132e65" stroke-width="1.5"></path><path d="M1575.47 643.89L1744.48 679.59" stroke="#132e65" stroke-width="1.5"></path><path d="M1540.32 788.1L1540.32 788.1" stroke="#132e65" stroke-width="1.5"></path><path d="M1752.01 -73.33L1752.01 -73.33" stroke="#132e65" stroke-width="1.5"></path><path d="M1752.01 -73.33L1702.32 37.84" stroke="#132e65" stroke-width="1.5"></path><path d="M1752.01 -73.33L1875.32 -39.82" stroke="#132e65" stroke-width="1.5"></path><path d="M1752.01 -73.33L1854.78 72.62" stroke="#132e65" stroke-width="1.5"></path><path d="M1752.01 -73.33L1566.35 -96.4" stroke="#132e65" stroke-width="1.5"></path><path d="M1752.01 -73.33L1586.33 74.36" stroke="#132e65" stroke-width="1.5"></path><path d="M1702.32 37.84L1702.32 37.84" stroke="#132e65" stroke-width="1.5"></path><path d="M1702.32 37.84L1854.78 72.62" stroke="#132e65" stroke-width="1.5"></path><path d="M1702.32 37.84L1754.17 199.48" stroke="#132e65" stroke-width="1.5"></path><path d="M1754.17 199.48L1754.17 199.48" stroke="#132e65" stroke-width="1.5"></path><path d="M1754.17 199.48L1872.35 193.18" stroke="#132e65" stroke-width="1.5"></path><path d="M1754.17 199.48L1742.15 356.63" stroke="#132e65" stroke-width="1.5"></path><path d="M1754.17 199.48L1854.78 72.62" stroke="#132e65" stroke-width="1.5"></path><path d="M1754.17 199.48L1876.7 368.41" stroke="#132e65" stroke-width="1.5"></path><path d="M1754.17 199.48L1586.33 74.36" stroke="#132e65" stroke-width="1.5"></path><path d="M1742.15 356.63L1742.15 356.63" stroke="#132e65" stroke-width="1.5"></path><path d="M1742.15 356.63L1876.7 368.41" stroke="#132e65" stroke-width="1.5"></path><path d="M1742.15 356.63L1741.02 497.49" stroke="#132e65" stroke-width="1.5"></path><path d="M1742.15 356.63L1862.6 492.84" stroke="#132e65" stroke-width="1.5"></path><path d="M1741.02 497.49L1741.02 497.49" stroke="#132e65" stroke-width="1.5"></path><path d="M1741.02 497.49L1862.6 492.84" stroke="#132e65" stroke-width="1.5"></path><path d="M1741.02 497.49L1744.48 679.59" stroke="#132e65" stroke-width="1.5"></path><path d="M1744.48 679.59L1744.48 679.59" stroke="#132e65" stroke-width="1.5"></path><path d="M1744.48 679.59L1857.44 639.33" stroke="#132e65" stroke-width="1.5"></path><path d="M1744.48 679.59L1731.27 805.94" stroke="#132e65" stroke-width="1.5"></path><path d="M1731.27 805.94L1731.27 805.94" stroke="#132e65" stroke-width="1.5"></path><path d="M1731.27 805.94L1875.85 848.97" stroke="#132e65" stroke-width="1.5"></path><path d="M1731.27 805.94L1540.32 788.1" stroke="#132e65" stroke-width="1.5"></path><path d="M1875.32 -39.82L1875.32 -39.82" stroke="#132e65" stroke-width="1.5"></path><path d="M1875.32 -39.82L1854.78 72.62" stroke="#132e65" stroke-width="1.5"></path><path d="M1854.78 72.62L1854.78 72.62" stroke="#132e65" stroke-width="1.5"></path><path d="M1854.78 72.62L1872.35 193.18" stroke="#132e65" stroke-width="1.5"></path><path d="M1872.35 193.18L1872.35 193.18" stroke="#132e65" stroke-width="1.5"></path><path d="M1876.7 368.41L1876.7 368.41" stroke="#132e65" stroke-width="1.5"></path><path d="M1876.7 368.41L1862.6 492.84" stroke="#132e65" stroke-width="1.5"></path><path d="M1876.7 368.41L2037.87 388.42" stroke="#132e65" stroke-width="1.5"></path><path d="M1876.7 368.41L1872.35 193.18" stroke="#132e65" stroke-width="1.5"></path><path d="M1876.7 368.41L1741.02 497.49" stroke="#132e65" stroke-width="1.5"></path><path d="M1876.7 368.41L2025.23 239.63" stroke="#132e65" stroke-width="1.5"></path><path d="M1862.6 492.84L1862.6 492.84" stroke="#132e65" stroke-width="1.5"></path><path d="M1862.6 492.84L1857.44 639.33" stroke="#132e65" stroke-width="1.5"></path><path d="M1857.44 639.33L1857.44 639.33" stroke="#132e65" stroke-width="1.5"></path><path d="M1857.44 639.33L1741.02 497.49" stroke="#132e65" stroke-width="1.5"></path><path d="M1857.44 639.33L2048.19 695.97" stroke="#132e65" stroke-width="1.5"></path><path d="M1875.85 848.97L1875.85 848.97" stroke="#132e65" stroke-width="1.5"></path><path d="M1875.85 848.97L1857.44 639.33" stroke="#132e65" stroke-width="1.5"></path><path d="M1875.85 848.97L1744.48 679.59" stroke="#132e65" stroke-width="1.5"></path><path d="M1875.85 848.97L2048.19 695.97" stroke="#132e65" stroke-width="1.5"></path><path d="M1875.85 848.97L1540.32 788.1" stroke="#132e65" stroke-width="1.5"></path><path d="M1875.85 848.97L1862.6 492.84" stroke="#132e65" stroke-width="1.5"></path><path d="M2039.81 -104.61L2039.81 -104.61" stroke="#132e65" stroke-width="1.5"></path><path d="M2039.81 -104.61L1875.32 -39.82" stroke="#132e65" stroke-width="1.5"></path><path d="M2039.81 -104.61L1992.11 81.73" stroke="#132e65" stroke-width="1.5"></path><path d="M2039.81 -104.61L1854.78 72.62" stroke="#132e65" stroke-width="1.5"></path><path d="M2039.81 -104.61L1752.01 -73.33" stroke="#132e65" stroke-width="1.5"></path><path d="M2039.81 -104.61L1872.35 193.18" stroke="#132e65" stroke-width="1.5"></path><path d="M2039.81 -104.61L2025.23 239.63" stroke="#132e65" stroke-width="1.5"></path><path d="M1992.11 81.73L1992.11 81.73" stroke="#132e65" stroke-width="1.5"></path><path d="M1992.11 81.73L1854.78 72.62" stroke="#132e65" stroke-width="1.5"></path><path d="M1992.11 81.73L2025.23 239.63" stroke="#132e65" stroke-width="1.5"></path><path d="M1992.11 81.73L1872.35 193.18" stroke="#132e65" stroke-width="1.5"></path><path d="M1992.11 81.73L1875.32 -39.82" stroke="#132e65" stroke-width="1.5"></path><path d="M1992.11 81.73L1754.17 199.48" stroke="#132e65" stroke-width="1.5"></path><path d="M2025.23 239.63L2025.23 239.63" stroke="#132e65" stroke-width="1.5"></path><path d="M2025.23 239.63L2037.87 388.42" stroke="#132e65" stroke-width="1.5"></path><path d="M2025.23 239.63L1872.35 193.18" stroke="#132e65" stroke-width="1.5"></path><path d="M2025.23 239.63L1854.78 72.62" stroke="#132e65" stroke-width="1.5"></path><path d="M2037.87 388.42L2037.87 388.42" stroke="#132e65" stroke-width="1.5"></path><path d="M2037.87 388.42L2024.93 497.84" stroke="#132e65" stroke-width="1.5"></path><path d="M2037.87 388.42L1862.6 492.84" stroke="#132e65" stroke-width="1.5"></path><path d="M2037.87 388.42L1872.35 193.18" stroke="#132e65" stroke-width="1.5"></path><path d="M2024.93 497.84L2024.93 497.84" stroke="#132e65" stroke-width="1.5"></path><path d="M2024.93 497.84L1862.6 492.84" stroke="#132e65" stroke-width="1.5"></path><path d="M2024.93 497.84L1876.7 368.41" stroke="#132e65" stroke-width="1.5"></path><path d="M2024.93 497.84L2048.19 695.97" stroke="#132e65" stroke-width="1.5"></path><path d="M2024.93 497.84L1857.44 639.33" stroke="#132e65" stroke-width="1.5"></path><path d="M2024.93 497.84L2025.23 239.63" stroke="#132e65" stroke-width="1.5"></path><path d="M2048.19 695.97L2048.19 695.97" stroke="#132e65" stroke-width="1.5"></path><path d="M2048.19 695.97L1862.6 492.84" stroke="#132e65" stroke-width="1.5"></path><path d="M2048.19 695.97L1744.48 679.59" stroke="#132e65" stroke-width="1.5"></path><circle r="5" cx="-97.56" cy="491.39" fill="#132e65"></circle><circle r="5" cx="-60.39" cy="672.06" fill="#132e65"></circle><circle r="5" cx="-103.62" cy="816.39" fill="#132e65"></circle><circle r="5" cx="57.79" cy="509.57" fill="#132e65"></circle><circle r="5" cx="61.47" cy="848.82" fill="#132e65"></circle><circle r="5" cx="206.29" cy="549.93" fill="#132e65"></circle><circle r="5" cx="213.56" cy="666.39" fill="#132e65"></circle><circle r="5" cx="366.06" cy="411.29" fill="#132e65"></circle><circle r="5" cx="404.22" cy="503.95" fill="#132e65"></circle><circle r="5" cx="409.85" cy="706.61" fill="#132e65"></circle><circle r="5" cx="338.9" cy="847.8" fill="#132e65"></circle><circle r="5" cx="510.4" cy="675.02" fill="#132e65"></circle><circle r="5" cx="531.84" cy="843.96" fill="#132e65"></circle><circle r="5" cx="690.53" cy="362.39" fill="#132e65"></circle><circle r="5" cx="661.18" cy="515.8" fill="#132e65"></circle><circle r="5" cx="669.71" cy="650.27" fill="#132e65"></circle><circle r="5" cx="840.67" cy="344.89" fill="#132e65"></circle><circle r="5" cx="859.78" cy="495.08" fill="#132e65"></circle><circle r="5" cx="795.66" cy="690.39" fill="#132e65"></circle><circle r="5" cx="830.3" cy="855.54" fill="#132e65"></circle><circle r="5" cx="952.43" cy="391.11" fill="#132e65"></circle><circle r="5" cx="997.43" cy="530.83" fill="#132e65"></circle><circle r="5" cx="938.86" cy="680.99" fill="#132e65"></circle><circle r="5" cx="989.82" cy="859.71" fill="#132e65"></circle><circle r="5" cx="1132.89" cy="243.84" fill="#132e65"></circle><circle r="5" cx="1106.13" cy="338.53" fill="#132e65"></circle><circle r="5" cx="1150.58" cy="507.44" fill="#132e65"></circle><circle r="5" cx="1161.99" cy="681.45" fill="#132e65"></circle><circle r="5" cx="1155.42" cy="833.48" fill="#132e65"></circle><circle r="5" cx="1242.71" cy="-69.74" fill="#132e65"></circle><circle r="5" cx="1295" cy="87.22" fill="#132e65"></circle><circle r="5" cx="1306.29" cy="235.24" fill="#132e65"></circle><circle r="5" cx="1270.9" cy="347.18" fill="#132e65"></circle><circle r="5" cx="1242.02" cy="500.6" fill="#132e65"></circle><circle r="5" cx="1260.94" cy="699.89" fill="#132e65"></circle><circle r="5" cx="1292.15" cy="810.78" fill="#132e65"></circle><circle r="5" cx="1442.61" cy="-71.1" fill="#132e65"></circle><circle r="5" cx="1443.65" cy="45.53" fill="#132e65"></circle><circle r="5" cx="1404.81" cy="238.72" fill="#132e65"></circle><circle r="5" cx="1437.87" cy="362.39" fill="#132e65"></circle><circle r="5" cx="1429.64" cy="530.58" fill="#132e65"></circle><circle r="5" cx="1456.64" cy="661.89" fill="#132e65"></circle><circle r="5" cx="1400.25" cy="829.4" fill="#132e65"></circle><circle r="5" cx="1566.35" cy="-96.4" fill="#132e65"></circle><circle r="5" cx="1586.33" cy="74.36" fill="#132e65"></circle><circle r="5" cx="1541.37" cy="255.78" fill="#132e65"></circle><circle r="5" cx="1545.35" cy="391.24" fill="#132e65"></circle><circle r="5" cx="1571.72" cy="528.69" fill="#132e65"></circle><circle r="5" cx="1575.47" cy="643.89" fill="#132e65"></circle><circle r="5" cx="1540.32" cy="788.1" fill="#132e65"></circle><circle r="5" cx="1752.01" cy="-73.33" fill="#132e65"></circle><circle r="5" cx="1702.32" cy="37.84" fill="#132e65"></circle><circle r="5" cx="1754.17" cy="199.48" fill="#132e65"></circle><circle r="5" cx="1742.15" cy="356.63" fill="#132e65"></circle><circle r="5" cx="1741.02" cy="497.49" fill="#132e65"></circle><circle r="5" cx="1744.48" cy="679.59" fill="#132e65"></circle><circle r="5" cx="1731.27" cy="805.94" fill="#132e65"></circle><circle r="5" cx="1875.32" cy="-39.82" fill="#132e65"></circle><circle r="5" cx="1854.78" cy="72.62" fill="#132e65"></circle><circle r="5" cx="1872.35" cy="193.18" fill="#132e65"></circle><circle r="5" cx="1876.7" cy="368.41" fill="#132e65"></circle><circle r="5" cx="1862.6" cy="492.84" fill="#132e65"></circle><circle r="5" cx="1857.44" cy="639.33" fill="#132e65"></circle><circle r="5" cx="1875.85" cy="848.97" fill="#132e65"></circle><circle r="5" cx="2039.81" cy="-104.61" fill="#132e65"></circle><circle r="5" cx="1992.11" cy="81.73" fill="#132e65"></circle><circle r="5" cx="2025.23" cy="239.63" fill="#132e65"></circle><circle r="5" cx="2037.87" cy="388.42" fill="#132e65"></circle><circle r="5" cx="2024.93" cy="497.84" fill="#132e65"></circle><circle r="5" cx="2048.19" cy="695.97" fill="#132e65"></circle><path d="M1137.33 494.22L1137.33 494.22" stroke="hsl(228.5, 77.2%, 51.5%)" stroke-width="1.5"></path><path d="M1137.33 494.22L1253.51 544.55" stroke="hsl(228.5, 77.2%, 51.5%)" stroke-width="1.5"></path><path d="M1137.33 494.22L1243.82 354.42" stroke="hsl(228.5, 77.2%, 51.5%)" stroke-width="1.5"></path><path d="M1137.33 494.22L942.84 529.39" stroke="hsl(228.5, 77.2%, 51.5%)" stroke-width="1.5"></path><path d="M1137.33 494.22L1114.21 708.97" stroke="hsl(228.5, 77.2%, 51.5%)" stroke-width="1.5"></path><path d="M1114.21 708.97L1114.21 708.97" stroke="hsl(228.5, 77.2%, 51.5%)" stroke-width="1.5"></path><path d="M1114.21 708.97L1126.17 788.99" stroke="hsl(228.5, 77.2%, 51.5%)" stroke-width="1.5"></path><path d="M1114.21 708.97L991.76 656.99" stroke="hsl(228.5, 77.2%, 51.5%)" stroke-width="1.5"></path><path d="M1114.21 708.97L1267.86 667.26" stroke="hsl(228.5, 77.2%, 51.5%)" stroke-width="1.5"></path><path d="M1114.21 708.97L971.87 810.89" stroke="hsl(228.5, 77.2%, 51.5%)" stroke-width="1.5"></path><path d="M1126.17 788.99L1126.17 788.99" stroke="hsl(228.5, 77.2%, 51.5%)" stroke-width="1.5"></path><path d="M1126.17 788.99L1256.87 813.12" stroke="hsl(228.5, 77.2%, 51.5%)" stroke-width="1.5"></path><path d="M1126.17 788.99L971.87 810.89" stroke="hsl(228.5, 77.2%, 51.5%)" stroke-width="1.5"></path><path d="M1126.17 788.99L1267.86 667.26" stroke="hsl(228.5, 77.2%, 51.5%)" stroke-width="1.5"></path><path d="M1126.17 788.99L991.76 656.99" stroke="hsl(228.5, 77.2%, 51.5%)" stroke-width="1.5"></path><path d="M1126.17 788.99L1400.24 790.39" stroke="hsl(228.5, 77.2%, 51.5%)" stroke-width="1.5"></path><path d="M1253.51 544.55L1253.51 544.55" stroke="hsl(228.5, 77.2%, 51.5%)" stroke-width="1.5"></path><path d="M1253.51 544.55L1267.86 667.26" stroke="hsl(228.5, 77.2%, 51.5%)" stroke-width="1.5"></path><path d="M1267.86 667.26L1267.86 667.26" stroke="hsl(228.5, 77.2%, 51.5%)" stroke-width="1.5"></path><path d="M1267.86 667.26L1256.87 813.12" stroke="hsl(228.5, 77.2%, 51.5%)" stroke-width="1.5"></path><path d="M1267.86 667.26L1441.28 661.11" stroke="hsl(228.5, 77.2%, 51.5%)" stroke-width="1.5"></path><path d="M1267.86 667.26L1400.24 790.39" stroke="hsl(228.5, 77.2%, 51.5%)" stroke-width="1.5"></path><path d="M1429.69 258.87L1429.69 258.87" stroke="hsl(228.5, 77.2%, 51.5%)" stroke-width="1.5"></path><path d="M1429.69 258.87L1455.77 387.6" stroke="hsl(228.5, 77.2%, 51.5%)" stroke-width="1.5"></path><path d="M1429.69 258.87L1576.23 240.49" stroke="hsl(228.5, 77.2%, 51.5%)" stroke-width="1.5"></path><path d="M1429.69 258.87L1594.92 385.56" stroke="hsl(228.5, 77.2%, 51.5%)" stroke-width="1.5"></path><path d="M1429.69 258.87L1243.82 354.42" stroke="hsl(228.5, 77.2%, 51.5%)" stroke-width="1.5"></path><path d="M1429.69 258.87L1577.63 58.59" stroke="hsl(228.5, 77.2%, 51.5%)" stroke-width="1.5"></path><path d="M1429.69 258.87L1538.58 488.51" stroke="hsl(228.5, 77.2%, 51.5%)" stroke-width="1.5"></path><path d="M1594.92 385.56L1594.92 385.56" stroke="hsl(228.5, 77.2%, 51.5%)" stroke-width="1.5"></path><path d="M1594.92 385.56L1538.58 488.51" stroke="hsl(228.5, 77.2%, 51.5%)" stroke-width="1.5"></path><path d="M1609.99 688.52L1609.99 688.52" stroke="hsl(228.5, 77.2%, 51.5%)" stroke-width="1.5"></path><path d="M1609.99 688.52L1601.89 796.84" stroke="hsl(228.5, 77.2%, 51.5%)" stroke-width="1.5"></path><path d="M1609.99 688.52L1747.59 679.89" stroke="hsl(228.5, 77.2%, 51.5%)" stroke-width="1.5"></path><path d="M1609.99 688.52L1441.28 661.11" stroke="hsl(228.5, 77.2%, 51.5%)" stroke-width="1.5"></path><path d="M1609.99 688.52L1761.75 787.66" stroke="hsl(228.5, 77.2%, 51.5%)" stroke-width="1.5"></path><path d="M1868.5 -100.55L1868.5 -100.55" stroke="hsl(228.5, 77.2%, 51.5%)" stroke-width="1.5"></path><path d="M1868.5 -100.55L1757.08 -65.15" stroke="hsl(228.5, 77.2%, 51.5%)" stroke-width="1.5"></path><path d="M1868.5 -100.55L1882.87 56.79" stroke="hsl(228.5, 77.2%, 51.5%)" stroke-width="1.5"></path><path d="M-60.39 674.08L-60.39 674.08" stroke="hsl(228.5, 77.2%, 51.5%)" stroke-width="1.5"></path><path d="M-60.39 674.08L58.31 661.06" stroke="hsl(228.5, 77.2%, 51.5%)" stroke-width="1.5"></path><path d="M-60.39 674.08L-99.79 827.59" stroke="hsl(228.5, 77.2%, 51.5%)" stroke-width="1.5"></path><path d="M-60.39 674.08L42.24 800.94" stroke="hsl(228.5, 77.2%, 51.5%)" stroke-width="1.5"></path><path d="M-60.39 674.08L231.92 656.54" stroke="hsl(228.5, 77.2%, 51.5%)" stroke-width="1.5"></path><path d="M-99.79 827.59L-99.79 827.59" stroke="hsl(228.5, 77.2%, 51.5%)" stroke-width="1.5"></path><path d="M-99.79 827.59L42.24 800.94" stroke="hsl(228.5, 77.2%, 51.5%)" stroke-width="1.5"></path><path d="M58.31 661.06L58.31 661.06" stroke="hsl(228.5, 77.2%, 51.5%)" stroke-width="1.5"></path><path d="M58.31 661.06L42.24 800.94" stroke="hsl(228.5, 77.2%, 51.5%)" stroke-width="1.5"></path><path d="M58.31 661.06L231.92 656.54" stroke="hsl(228.5, 77.2%, 51.5%)" stroke-width="1.5"></path><path d="M58.31 661.06L-99.79 827.59" stroke="hsl(228.5, 77.2%, 51.5%)" stroke-width="1.5"></path><path d="M58.31 661.06L246.05 811.91" stroke="hsl(228.5, 77.2%, 51.5%)" stroke-width="1.5"></path><path d="M42.24 800.94L42.24 800.94" stroke="hsl(228.5, 77.2%, 51.5%)" stroke-width="1.5"></path><path d="M231.92 656.54L231.92 656.54" stroke="hsl(228.5, 77.2%, 51.5%)" stroke-width="1.5"></path><path d="M231.92 656.54L346.14 674.45" stroke="hsl(228.5, 77.2%, 51.5%)" stroke-width="1.5"></path><path d="M231.92 656.54L246.05 811.91" stroke="hsl(228.5, 77.2%, 51.5%)" stroke-width="1.5"></path><path d="M231.92 656.54L42.24 800.94" stroke="hsl(228.5, 77.2%, 51.5%)" stroke-width="1.5"></path><path d="M246.05 811.91L246.05 811.91" stroke="hsl(228.5, 77.2%, 51.5%)" stroke-width="1.5"></path><path d="M246.05 811.91L346.14 674.45" stroke="hsl(228.5, 77.2%, 51.5%)" stroke-width="1.5"></path><path d="M246.05 811.91L42.24 800.94" stroke="hsl(228.5, 77.2%, 51.5%)" stroke-width="1.5"></path><path d="M246.05 811.91L502.06 650.23" stroke="hsl(228.5, 77.2%, 51.5%)" stroke-width="1.5"></path><path d="M246.05 811.91L550.66 801.74" stroke="hsl(228.5, 77.2%, 51.5%)" stroke-width="1.5"></path><path d="M346.14 674.45L346.14 674.45" stroke="hsl(228.5, 77.2%, 51.5%)" stroke-width="1.5"></path><path d="M346.14 674.45L502.06 650.23" stroke="hsl(228.5, 77.2%, 51.5%)" stroke-width="1.5"></path><path d="M502.06 650.23L502.06 650.23" stroke="hsl(228.5, 77.2%, 51.5%)" stroke-width="1.5"></path><path d="M502.06 650.23L550.66 801.74" stroke="hsl(228.5, 77.2%, 51.5%)" stroke-width="1.5"></path><path d="M502.06 650.23L689.9 543.36" stroke="hsl(228.5, 77.2%, 51.5%)" stroke-width="1.5"></path><path d="M502.06 650.23L690.38 799.35" stroke="hsl(228.5, 77.2%, 51.5%)" stroke-width="1.5"></path><path d="M502.06 650.23L231.92 656.54" stroke="hsl(228.5, 77.2%, 51.5%)" stroke-width="1.5"></path><path d="M550.66 801.74L550.66 801.74" stroke="hsl(228.5, 77.2%, 51.5%)" stroke-width="1.5"></path><path d="M550.66 801.74L690.38 799.35" stroke="hsl(228.5, 77.2%, 51.5%)" stroke-width="1.5"></path><path d="M550.66 801.74L346.14 674.45" stroke="hsl(228.5, 77.2%, 51.5%)" stroke-width="1.5"></path><path d="M550.66 801.74L808.97 824.5" stroke="hsl(228.5, 77.2%, 51.5%)" stroke-width="1.5"></path><path d="M550.66 801.74L807.03 698.9" stroke="hsl(228.5, 77.2%, 51.5%)" stroke-width="1.5"></path><path d="M689.9 543.36L689.9 543.36" stroke="hsl(228.5, 77.2%, 51.5%)" stroke-width="1.5"></path><path d="M689.9 543.36L821.15 542.61" stroke="hsl(228.5, 77.2%, 51.5%)" stroke-width="1.5"></path><path d="M689.9 543.36L807.03 698.9" stroke="hsl(228.5, 77.2%, 51.5%)" stroke-width="1.5"></path><path d="M689.9 543.36L942.84 529.39" stroke="hsl(228.5, 77.2%, 51.5%)" stroke-width="1.5"></path><path d="M690.38 799.35L690.38 799.35" stroke="hsl(228.5, 77.2%, 51.5%)" stroke-width="1.5"></path><path d="M690.38 799.35L808.97 824.5" stroke="hsl(228.5, 77.2%, 51.5%)" stroke-width="1.5"></path><path d="M821.15 542.61L821.15 542.61" stroke="hsl(228.5, 77.2%, 51.5%)" stroke-width="1.5"></path><path d="M821.15 542.61L942.84 529.39" stroke="hsl(228.5, 77.2%, 51.5%)" stroke-width="1.5"></path><path d="M821.15 542.61L807.03 698.9" stroke="hsl(228.5, 77.2%, 51.5%)" stroke-width="1.5"></path><path d="M821.15 542.61L991.76 656.99" stroke="hsl(228.5, 77.2%, 51.5%)" stroke-width="1.5"></path><path d="M821.15 542.61L808.97 824.5" stroke="hsl(228.5, 77.2%, 51.5%)" stroke-width="1.5"></path><path d="M821.15 542.61L690.38 799.35" stroke="hsl(228.5, 77.2%, 51.5%)" stroke-width="1.5"></path><path d="M807.03 698.9L807.03 698.9" stroke="hsl(228.5, 77.2%, 51.5%)" stroke-width="1.5"></path><path d="M807.03 698.9L808.97 824.5" stroke="hsl(228.5, 77.2%, 51.5%)" stroke-width="1.5"></path><path d="M807.03 698.9L690.38 799.35" stroke="hsl(228.5, 77.2%, 51.5%)" stroke-width="1.5"></path><path d="M807.03 698.9L991.76 656.99" stroke="hsl(228.5, 77.2%, 51.5%)" stroke-width="1.5"></path><path d="M808.97 824.5L808.97 824.5" stroke="hsl(228.5, 77.2%, 51.5%)" stroke-width="1.5"></path><path d="M942.84 529.39L942.84 529.39" stroke="hsl(228.5, 77.2%, 51.5%)" stroke-width="1.5"></path><path d="M942.84 529.39L991.76 656.99" stroke="hsl(228.5, 77.2%, 51.5%)" stroke-width="1.5"></path><path d="M942.84 529.39L807.03 698.9" stroke="hsl(228.5, 77.2%, 51.5%)" stroke-width="1.5"></path><path d="M942.84 529.39L1114.21 708.97" stroke="hsl(228.5, 77.2%, 51.5%)" stroke-width="1.5"></path><path d="M991.76 656.99L991.76 656.99" stroke="hsl(228.5, 77.2%, 51.5%)" stroke-width="1.5"></path><path d="M991.76 656.99L971.87 810.89" stroke="hsl(228.5, 77.2%, 51.5%)" stroke-width="1.5"></path><path d="M971.87 810.89L971.87 810.89" stroke="hsl(228.5, 77.2%, 51.5%)" stroke-width="1.5"></path><path d="M971.87 810.89L808.97 824.5" stroke="hsl(228.5, 77.2%, 51.5%)" stroke-width="1.5"></path><path d="M971.87 810.89L807.03 698.9" stroke="hsl(228.5, 77.2%, 51.5%)" stroke-width="1.5"></path><path d="M1243.82 354.42L1243.82 354.42" stroke="hsl(228.5, 77.2%, 51.5%)" stroke-width="1.5"></path><path d="M1243.82 354.42L1253.51 544.55" stroke="hsl(228.5, 77.2%, 51.5%)" stroke-width="1.5"></path><path d="M1256.87 813.12L1256.87 813.12" stroke="hsl(228.5, 77.2%, 51.5%)" stroke-width="1.5"></path><path d="M1256.87 813.12L1400.24 790.39" stroke="hsl(228.5, 77.2%, 51.5%)" stroke-width="1.5"></path><path d="M1256.87 813.12L1114.21 708.97" stroke="hsl(228.5, 77.2%, 51.5%)" stroke-width="1.5"></path><path d="M1256.87 813.12L1441.28 661.11" stroke="hsl(228.5, 77.2%, 51.5%)" stroke-width="1.5"></path><path d="M1455.77 387.6L1455.77 387.6" stroke="hsl(228.5, 77.2%, 51.5%)" stroke-width="1.5"></path><path d="M1455.77 387.6L1538.58 488.51" stroke="hsl(228.5, 77.2%, 51.5%)" stroke-width="1.5"></path><path d="M1455.77 387.6L1594.92 385.56" stroke="hsl(228.5, 77.2%, 51.5%)" stroke-width="1.5"></path><path d="M1455.77 387.6L1576.23 240.49" stroke="hsl(228.5, 77.2%, 51.5%)" stroke-width="1.5"></path><path d="M1455.77 387.6L1243.82 354.42" stroke="hsl(228.5, 77.2%, 51.5%)" stroke-width="1.5"></path><path d="M1441.28 661.11L1441.28 661.11" stroke="hsl(228.5, 77.2%, 51.5%)" stroke-width="1.5"></path><path d="M1441.28 661.11L1400.24 790.39" stroke="hsl(228.5, 77.2%, 51.5%)" stroke-width="1.5"></path><path d="M1441.28 661.11L1538.58 488.51" stroke="hsl(228.5, 77.2%, 51.5%)" stroke-width="1.5"></path><path d="M1400.24 790.39L1400.24 790.39" stroke="hsl(228.5, 77.2%, 51.5%)" stroke-width="1.5"></path><path d="M1400.24 790.39L1601.89 796.84" stroke="hsl(228.5, 77.2%, 51.5%)" stroke-width="1.5"></path><path d="M1400.24 790.39L1609.99 688.52" stroke="hsl(228.5, 77.2%, 51.5%)" stroke-width="1.5"></path><path d="M1587.63 -50.47L1587.63 -50.47" stroke="hsl(228.5, 77.2%, 51.5%)" stroke-width="1.5"></path><path d="M1587.63 -50.47L1577.63 58.59" stroke="hsl(228.5, 77.2%, 51.5%)" stroke-width="1.5"></path><path d="M1587.63 -50.47L1757.08 -65.15" stroke="hsl(228.5, 77.2%, 51.5%)" stroke-width="1.5"></path><path d="M1587.63 -50.47L1708.1 72.8" stroke="hsl(228.5, 77.2%, 51.5%)" stroke-width="1.5"></path><path d="M1577.63 58.59L1577.63 58.59" stroke="hsl(228.5, 77.2%, 51.5%)" stroke-width="1.5"></path><path d="M1576.23 240.49L1576.23 240.49" stroke="hsl(228.5, 77.2%, 51.5%)" stroke-width="1.5"></path><path d="M1576.23 240.49L1594.92 385.56" stroke="hsl(228.5, 77.2%, 51.5%)" stroke-width="1.5"></path><path d="M1538.58 488.51L1538.58 488.51" stroke="hsl(228.5, 77.2%, 51.5%)" stroke-width="1.5"></path><path d="M1538.58 488.51L1719.79 515.21" stroke="hsl(228.5, 77.2%, 51.5%)" stroke-width="1.5"></path><path d="M1538.58 488.51L1609.99 688.52" stroke="hsl(228.5, 77.2%, 51.5%)" stroke-width="1.5"></path><path d="M1601.89 796.84L1601.89 796.84" stroke="hsl(228.5, 77.2%, 51.5%)" stroke-width="1.5"></path><path d="M1601.89 796.84L1761.75 787.66" stroke="hsl(228.5, 77.2%, 51.5%)" stroke-width="1.5"></path><path d="M1601.89 796.84L1747.59 679.89" stroke="hsl(228.5, 77.2%, 51.5%)" stroke-width="1.5"></path><path d="M1757.08 -65.15L1757.08 -65.15" stroke="hsl(228.5, 77.2%, 51.5%)" stroke-width="1.5"></path><path d="M1757.08 -65.15L1708.1 72.8" stroke="hsl(228.5, 77.2%, 51.5%)" stroke-width="1.5"></path><path d="M1757.08 -65.15L1882.87 56.79" stroke="hsl(228.5, 77.2%, 51.5%)" stroke-width="1.5"></path><path d="M1708.1 72.8L1708.1 72.8" stroke="hsl(228.5, 77.2%, 51.5%)" stroke-width="1.5"></path><path d="M1708.1 72.8L1577.63 58.59" stroke="hsl(228.5, 77.2%, 51.5%)" stroke-width="1.5"></path><path d="M1740.89 396.86L1740.89 396.86" stroke="hsl(228.5, 77.2%, 51.5%)" stroke-width="1.5"></path><path d="M1740.89 396.86L1719.79 515.21" stroke="hsl(228.5, 77.2%, 51.5%)" stroke-width="1.5"></path><path d="M1740.89 396.86L1869.5 351.15" stroke="hsl(228.5, 77.2%, 51.5%)" stroke-width="1.5"></path><path d="M1740.89 396.86L1594.92 385.56" stroke="hsl(228.5, 77.2%, 51.5%)" stroke-width="1.5"></path><path d="M1740.89 396.86L1868.49 240.65" stroke="hsl(228.5, 77.2%, 51.5%)" stroke-width="1.5"></path><path d="M1740.89 396.86L1538.58 488.51" stroke="hsl(228.5, 77.2%, 51.5%)" stroke-width="1.5"></path><path d="M1719.79 515.21L1719.79 515.21" stroke="hsl(228.5, 77.2%, 51.5%)" stroke-width="1.5"></path><path d="M1719.79 515.21L1747.59 679.89" stroke="hsl(228.5, 77.2%, 51.5%)" stroke-width="1.5"></path><path d="M1719.79 515.21L1594.92 385.56" stroke="hsl(228.5, 77.2%, 51.5%)" stroke-width="1.5"></path><path d="M1747.59 679.89L1747.59 679.89" stroke="hsl(228.5, 77.2%, 51.5%)" stroke-width="1.5"></path><path d="M1747.59 679.89L1761.75 787.66" stroke="hsl(228.5, 77.2%, 51.5%)" stroke-width="1.5"></path><path d="M1747.59 679.89L1866.84 697.67" stroke="hsl(228.5, 77.2%, 51.5%)" stroke-width="1.5"></path><path d="M1761.75 787.66L1761.75 787.66" stroke="hsl(228.5, 77.2%, 51.5%)" stroke-width="1.5"></path><path d="M1761.75 787.66L1866.84 697.67" stroke="hsl(228.5, 77.2%, 51.5%)" stroke-width="1.5"></path><path d="M1761.75 787.66L1719.79 515.21" stroke="hsl(228.5, 77.2%, 51.5%)" stroke-width="1.5"></path><path d="M1882.87 56.79L1882.87 56.79" stroke="hsl(228.5, 77.2%, 51.5%)" stroke-width="1.5"></path><path d="M1882.87 56.79L1998.56 46.87" stroke="hsl(228.5, 77.2%, 51.5%)" stroke-width="1.5"></path><path d="M1882.87 56.79L1708.1 72.8" stroke="hsl(228.5, 77.2%, 51.5%)" stroke-width="1.5"></path><path d="M1868.49 240.65L1868.49 240.65" stroke="hsl(228.5, 77.2%, 51.5%)" stroke-width="1.5"></path><path d="M1868.49 240.65L1869.5 351.15" stroke="hsl(228.5, 77.2%, 51.5%)" stroke-width="1.5"></path><path d="M1868.49 240.65L1882.87 56.79" stroke="hsl(228.5, 77.2%, 51.5%)" stroke-width="1.5"></path><path d="M1868.49 240.65L2052.45 195.29" stroke="hsl(228.5, 77.2%, 51.5%)" stroke-width="1.5"></path><path d="M1869.5 351.15L1869.5 351.15" stroke="hsl(228.5, 77.2%, 51.5%)" stroke-width="1.5"></path><path d="M1866.84 697.67L1866.84 697.67" stroke="hsl(228.5, 77.2%, 51.5%)" stroke-width="1.5"></path><path d="M1866.84 697.67L2048.24 814.97" stroke="hsl(228.5, 77.2%, 51.5%)" stroke-width="1.5"></path><path d="M1866.84 697.67L1719.79 515.21" stroke="hsl(228.5, 77.2%, 51.5%)" stroke-width="1.5"></path><path d="M1866.84 697.67L1991.12 496.71" stroke="hsl(228.5, 77.2%, 51.5%)" stroke-width="1.5"></path><path d="M2026.31 -110.65L2026.31 -110.65" stroke="hsl(228.5, 77.2%, 51.5%)" stroke-width="1.5"></path><path d="M2026.31 -110.65L1868.5 -100.55" stroke="hsl(228.5, 77.2%, 51.5%)" stroke-width="1.5"></path><path d="M2026.31 -110.65L1998.56 46.87" stroke="hsl(228.5, 77.2%, 51.5%)" stroke-width="1.5"></path><path d="M2026.31 -110.65L1882.87 56.79" stroke="hsl(228.5, 77.2%, 51.5%)" stroke-width="1.5"></path><path d="M2026.31 -110.65L1757.08 -65.15" stroke="hsl(228.5, 77.2%, 51.5%)" stroke-width="1.5"></path><path d="M1998.56 46.87L1998.56 46.87" stroke="hsl(228.5, 77.2%, 51.5%)" stroke-width="1.5"></path><path d="M1998.56 46.87L2052.45 195.29" stroke="hsl(228.5, 77.2%, 51.5%)" stroke-width="1.5"></path><path d="M2052.45 195.29L2052.45 195.29" stroke="hsl(228.5, 77.2%, 51.5%)" stroke-width="1.5"></path><path d="M2052.45 195.29L2032.18 377.92" stroke="hsl(228.5, 77.2%, 51.5%)" stroke-width="1.5"></path><path d="M2052.45 195.29L1882.87 56.79" stroke="hsl(228.5, 77.2%, 51.5%)" stroke-width="1.5"></path><path d="M2032.18 377.92L2032.18 377.92" stroke="hsl(228.5, 77.2%, 51.5%)" stroke-width="1.5"></path><path d="M2032.18 377.92L1991.12 496.71" stroke="hsl(228.5, 77.2%, 51.5%)" stroke-width="1.5"></path><path d="M2032.18 377.92L1869.5 351.15" stroke="hsl(228.5, 77.2%, 51.5%)" stroke-width="1.5"></path><path d="M2032.18 377.92L1868.49 240.65" stroke="hsl(228.5, 77.2%, 51.5%)" stroke-width="1.5"></path><path d="M2032.18 377.92L1740.89 396.86" stroke="hsl(228.5, 77.2%, 51.5%)" stroke-width="1.5"></path><path d="M2032.18 377.92L1998.56 46.87" stroke="hsl(228.5, 77.2%, 51.5%)" stroke-width="1.5"></path><path d="M1991.12 496.71L1991.12 496.71" stroke="hsl(228.5, 77.2%, 51.5%)" stroke-width="1.5"></path><path d="M2048.24 814.97L2048.24 814.97" stroke="hsl(228.5, 77.2%, 51.5%)" stroke-width="1.5"></path><path d="M2048.24 814.97L1761.75 787.66" stroke="hsl(228.5, 77.2%, 51.5%)" stroke-width="1.5"></path><path d="M2048.24 814.97L1991.12 496.71" stroke="hsl(228.5, 77.2%, 51.5%)" stroke-width="1.5"></path><path d="M2048.24 814.97L1747.59 679.89" stroke="hsl(228.5, 77.2%, 51.5%)" stroke-width="1.5"></path><path d="M2048.24 814.97L2032.18 377.92" stroke="hsl(228.5, 77.2%, 51.5%)" stroke-width="1.5"></path><circle r="25" cx="1137.33" cy="494.22" fill="url(#SvgjsRadialGradient1091)"></circle><circle r="25" cx="1114.21" cy="708.97" fill="url(#SvgjsRadialGradient1091)"></circle><circle r="25" cx="1126.17" cy="788.99" fill="url(#SvgjsRadialGradient1091)"></circle><circle r="25" cx="1253.51" cy="544.55" fill="url(#SvgjsRadialGradient1091)"></circle><circle r="25" cx="1267.86" cy="667.26" fill="url(#SvgjsRadialGradient1091)"></circle><circle r="25" cx="1429.69" cy="258.87" fill="url(#SvgjsRadialGradient1091)"></circle><circle r="25" cx="1594.92" cy="385.56" fill="url(#SvgjsRadialGradient1091)"></circle><circle r="25" cx="1609.99" cy="688.52" fill="url(#SvgjsRadialGradient1091)"></circle><circle r="25" cx="1868.5" cy="-100.55" fill="url(#SvgjsRadialGradient1091)"></circle><circle r="5" cx="-60.39" cy="674.08" fill="#8b9ad9"></circle><circle r="5" cx="-99.79" cy="827.59" fill="#8b9ad9"></circle><circle r="5" cx="58.31" cy="661.06" fill="#8b9ad9"></circle><circle r="5" cx="42.24" cy="800.94" fill="#8b9ad9"></circle><circle r="5" cx="231.92" cy="656.54" fill="#8b9ad9"></circle><circle r="5" cx="246.05" cy="811.91" fill="#8b9ad9"></circle><circle r="5" cx="346.14" cy="674.45" fill="#8b9ad9"></circle><circle r="5" cx="502.06" cy="650.23" fill="#8b9ad9"></circle><circle r="5" cx="550.66" cy="801.74" fill="#8b9ad9"></circle><circle r="5" cx="689.9" cy="543.36" fill="#8b9ad9"></circle><circle r="5" cx="690.38" cy="799.35" fill="#8b9ad9"></circle><circle r="5" cx="821.15" cy="542.61" fill="#8b9ad9"></circle><circle r="5" cx="807.03" cy="698.9" fill="#8b9ad9"></circle><circle r="5" cx="808.97" cy="824.5" fill="#8b9ad9"></circle><circle r="5" cx="942.84" cy="529.39" fill="#8b9ad9"></circle><circle r="5" cx="991.76" cy="656.99" fill="#8b9ad9"></circle><circle r="5" cx="971.87" cy="810.89" fill="#8b9ad9"></circle><circle r="5" cx="1243.82" cy="354.42" fill="#8b9ad9"></circle><circle r="5" cx="1256.87" cy="813.12" fill="#8b9ad9"></circle><circle r="5" cx="1455.77" cy="387.6" fill="#8b9ad9"></circle><circle r="5" cx="1441.28" cy="661.11" fill="#8b9ad9"></circle><circle r="5" cx="1400.24" cy="790.39" fill="#8b9ad9"></circle><circle r="5" cx="1587.63" cy="-50.47" fill="#8b9ad9"></circle><circle r="5" cx="1577.63" cy="58.59" fill="#8b9ad9"></circle><circle r="5" cx="1576.23" cy="240.49" fill="#8b9ad9"></circle><circle r="5" cx="1538.58" cy="488.51" fill="#8b9ad9"></circle><circle r="5" cx="1601.89" cy="796.84" fill="#8b9ad9"></circle><circle r="5" cx="1757.08" cy="-65.15" fill="#8b9ad9"></circle><circle r="5" cx="1708.1" cy="72.8" fill="#8b9ad9"></circle><circle r="5" cx="1740.89" cy="396.86" fill="#8b9ad9"></circle><circle r="5" cx="1719.79" cy="515.21" fill="#8b9ad9"></circle><circle r="5" cx="1747.59" cy="679.89" fill="#8b9ad9"></circle><circle r="5" cx="1761.75" cy="787.66" fill="#8b9ad9"></circle><circle r="5" cx="1882.87" cy="56.79" fill="#8b9ad9"></circle><circle r="5" cx="1868.49" cy="240.65" fill="#8b9ad9"></circle><circle r="5" cx="1869.5" cy="351.15" fill="#8b9ad9"></circle><circle r="5" cx="1866.84" cy="697.67" fill="#8b9ad9"></circle><circle r="5" cx="2026.31" cy="-110.65" fill="#8b9ad9"></circle><circle r="5" cx="1998.56" cy="46.87" fill="#8b9ad9"></circle><circle r="5" cx="2052.45" cy="195.29" fill="#8b9ad9"></circle><circle r="5" cx="2032.18" cy="377.92" fill="#8b9ad9"></circle><circle r="5" cx="1991.12" cy="496.71" fill="#8b9ad9"></circle><circle r="5" cx="2048.24" cy="814.97" fill="#8b9ad9"></circle></g><defs><mask id="SvgjsMask1089"><rect width="1920" height="720" fill="#ffffff"></rect></mask><linearGradient x1="15.62%" y1="-41.67%" x2="84.38%" y2="141.67%" gradientUnits="userSpaceOnUse" id="SvgjsLinearGradient1090"><stop stop-color="#0e2a47" offset="0"></stop><stop stop-color="#00459e" offset="1"></stop></linearGradient><radialGradient id="SvgjsRadialGradient1091"><stop stop-color="#ffffff" offset="0.1"></stop><stop stop-color="#1735b3" offset="0.2"></stop><stop stop-color="rgba(23, 53, 179, 0)" offset="1"></stop></radialGradient></defs></svg>