<svg xmlns="http://www.w3.org/2000/svg" version="1.1" xmlns:xlink="http://www.w3.org/1999/xlink" xmlns:svgjs="http://svgjs.com/svgjs" width="1440" height="560" preserveAspectRatio="none" viewBox="0 0 1440 560"><g mask="url(&quot;#SvgjsMask2394&quot;)" fill="none"><rect width="1440" height="560" x="0" y="0" fill="url(#SvgjsLinearGradient2395)"></rect><g mask="url(&quot;#SvgjsMask2397&quot;)"><path d="M565.5 246.5L594.5 217.5L623.5 188.5L652.5 188.5L681.5 188.5L710.5 188.5L739.5 188.5M217.5 275.5L246.5 304.5M362.5 275.5L391.5 246.5L420.5 246.5L449.5 246.5L478.5 246.5L507.5 217.5M391.5 275.5L420.5 304.5M101.5 275.5L130.5 304.5L159.5 304.5M536.5 275.5L565.5 275.5L594.5 275.5L623.5 275.5L652.5 275.5M-14.5 275.5L14.5 275.5L43.5 275.5L72.5 275.5L101.5 275.5L130.5 275.5L159.5 275.5L188.5 275.5L217.5 275.5L246.5 275.5L275.5 275.5L304.5 275.5L333.5 275.5L362.5 275.5L391.5 275.5L420.5 275.5L449.5 275.5L478.5 275.5L507.5 275.5L536.5 275.5L565.5 246.5L594.5 246.5L623.5 246.5L652.5 246.5" stroke="url(#SvgjsRadialGradient2396)" stroke-width="4.83"></path><path d="M645.25 246.5 a7.25 7.25 0 1 0 14.5 0 a7.25 7.25 0 1 0 -14.5 0zM732.25 188.5 a7.25 7.25 0 1 0 14.5 0 a7.25 7.25 0 1 0 -14.5 0zM239.25 304.5 a7.25 7.25 0 1 0 14.5 0 a7.25 7.25 0 1 0 -14.5 0zM500.25 217.5 a7.25 7.25 0 1 0 14.5 0 a7.25 7.25 0 1 0 -14.5 0zM413.25 304.5 a7.25 7.25 0 1 0 14.5 0 a7.25 7.25 0 1 0 -14.5 0zM152.25 304.5 a7.25 7.25 0 1 0 14.5 0 a7.25 7.25 0 1 0 -14.5 0zM645.25 275.5 a7.25 7.25 0 1 0 14.5 0 a7.25 7.25 0 1 0 -14.5 0z" fill="url(#SvgjsRadialGradient2396)"></path><path d="M14.5 304.5L43.5 304.5L72.5 304.5L101.5 304.5M-14.5 304.5L14.5 304.5L43.5 333.5" stroke="url(#SvgjsRadialGradient2396)" stroke-width="4.83"></path><path d="M36.25 333.5 a7.25 7.25 0 1 0 14.5 0 a7.25 7.25 0 1 0 -14.5 0zM94.25 304.5 a7.25 7.25 0 1 0 14.5 0 a7.25 7.25 0 1 0 -14.5 0z" fill="url(#SvgjsRadialGradient2396)"></path><path d="M188.5 188.5L217.5 217.5L246.5 246.5L275.5 246.5L304.5 246.5M565.5 130.5L594.5 159.5L623.5 159.5L652.5 159.5L681.5 159.5M159.5 188.5L188.5 217.5L217.5 246.5M362.5 159.5L391.5 188.5L420.5 188.5M333.5 159.5L362.5 130.5L391.5 130.5L420.5 130.5M449.5 159.5L478.5 130.5L507.5 130.5L536.5 130.5M130.5 188.5L159.5 217.5L188.5 246.5M72.5 217.5L101.5 217.5L130.5 217.5L159.5 246.5M304.5 159.5L333.5 188.5M-14.5 246.5L14.5 246.5L43.5 246.5L72.5 217.5L101.5 188.5L130.5 188.5L159.5 188.5L188.5 188.5L217.5 188.5L246.5 188.5L275.5 188.5L304.5 159.5L333.5 159.5L362.5 159.5L391.5 159.5L420.5 159.5L449.5 159.5L478.5 159.5L507.5 159.5L536.5 159.5L565.5 130.5L594.5 130.5L623.5 130.5L652.5 130.5L681.5 130.5L710.5 130.5L739.5 130.5L768.5 130.5L797.5 130.5L826.5 130.5L855.5 130.5L884.5 130.5L913.5 130.5L942.5 130.5L971.5 130.5L1000.5 130.5" stroke="url(#SvgjsRadialGradient2396)" stroke-width="4.83"></path><path d="M993.25 130.5 a7.25 7.25 0 1 0 14.5 0 a7.25 7.25 0 1 0 -14.5 0zM297.25 246.5 a7.25 7.25 0 1 0 14.5 0 a7.25 7.25 0 1 0 -14.5 0zM674.25 159.5 a7.25 7.25 0 1 0 14.5 0 a7.25 7.25 0 1 0 -14.5 0zM210.25 246.5 a7.25 7.25 0 1 0 14.5 0 a7.25 7.25 0 1 0 -14.5 0zM413.25 188.5 a7.25 7.25 0 1 0 14.5 0 a7.25 7.25 0 1 0 -14.5 0zM413.25 130.5 a7.25 7.25 0 1 0 14.5 0 a7.25 7.25 0 1 0 -14.5 0zM529.25 130.5 a7.25 7.25 0 1 0 14.5 0 a7.25 7.25 0 1 0 -14.5 0zM181.25 246.5 a7.25 7.25 0 1 0 14.5 0 a7.25 7.25 0 1 0 -14.5 0zM152.25 246.5 a7.25 7.25 0 1 0 14.5 0 a7.25 7.25 0 1 0 -14.5 0zM326.25 188.5 a7.25 7.25 0 1 0 14.5 0 a7.25 7.25 0 1 0 -14.5 0z" fill="url(#SvgjsRadialGradient2396)"></path><path d="M304.5 362.5L333.5 333.5M217.5 362.5L246.5 391.5M246.5 362.5L275.5 333.5L304.5 333.5M333.5 362.5L362.5 391.5L391.5 391.5L420.5 391.5M362.5 362.5L391.5 333.5M101.5 362.5L130.5 391.5M-14.5 333.5L14.5 333.5L43.5 362.5L72.5 362.5L101.5 362.5L130.5 362.5L159.5 362.5L188.5 362.5L217.5 362.5L246.5 362.5L275.5 362.5L304.5 362.5L333.5 362.5L362.5 362.5L391.5 362.5L420.5 333.5L449.5 304.5L478.5 304.5L507.5 304.5L536.5 304.5L565.5 304.5L594.5 304.5L623.5 304.5L652.5 304.5L681.5 304.5" stroke="url(#SvgjsRadialGradient2396)" stroke-width="4.83"></path><path d="M674.25 304.5 a7.25 7.25 0 1 0 14.5 0 a7.25 7.25 0 1 0 -14.5 0zM326.25 333.5 a7.25 7.25 0 1 0 14.5 0 a7.25 7.25 0 1 0 -14.5 0zM239.25 391.5 a7.25 7.25 0 1 0 14.5 0 a7.25 7.25 0 1 0 -14.5 0zM297.25 333.5 a7.25 7.25 0 1 0 14.5 0 a7.25 7.25 0 1 0 -14.5 0zM413.25 391.5 a7.25 7.25 0 1 0 14.5 0 a7.25 7.25 0 1 0 -14.5 0zM384.25 333.5 a7.25 7.25 0 1 0 14.5 0 a7.25 7.25 0 1 0 -14.5 0zM123.25 391.5 a7.25 7.25 0 1 0 14.5 0 a7.25 7.25 0 1 0 -14.5 0z" fill="url(#SvgjsRadialGradient2396)"></path><path d="M-14.5 217.5L14.5 217.5" stroke="url(#SvgjsRadialGradient2396)" stroke-width="4.83"></path><path d="M7.25 217.5 a7.25 7.25 0 1 0 14.5 0 a7.25 7.25 0 1 0 -14.5 0z" fill="url(#SvgjsRadialGradient2396)"></path><path d="M246.5 420.5L275.5 449.5L304.5 449.5L333.5 449.5M72.5 420.5L101.5 391.5M710.5 449.5L739.5 478.5L768.5 478.5L797.5 478.5L826.5 507.5M971.5 478.5L1000.5 449.5L1029.5 449.5M478.5 420.5L507.5 449.5L536.5 449.5L565.5 449.5L594.5 449.5M884.5 478.5L913.5 449.5L942.5 449.5L971.5 449.5L1000.5 420.5L1029.5 420.5M449.5 420.5L478.5 391.5L507.5 391.5L536.5 391.5L565.5 391.5L594.5 391.5L623.5 391.5L652.5 391.5L681.5 391.5L710.5 391.5L739.5 391.5L768.5 391.5L797.5 391.5L826.5 391.5L855.5 391.5M739.5 449.5L768.5 420.5L797.5 420.5L826.5 449.5L855.5 449.5M362.5 420.5L391.5 449.5L420.5 449.5L449.5 449.5L478.5 449.5L507.5 478.5L536.5 478.5L565.5 478.5M-14.5 362.5L14.5 362.5L43.5 391.5L72.5 420.5L101.5 420.5L130.5 420.5L159.5 420.5L188.5 420.5L217.5 420.5L246.5 420.5L275.5 420.5L304.5 420.5L333.5 420.5L362.5 420.5L391.5 420.5L420.5 420.5L449.5 420.5L478.5 420.5L507.5 420.5L536.5 420.5L565.5 420.5L594.5 420.5L623.5 420.5L652.5 449.5L681.5 449.5L710.5 449.5L739.5 449.5L768.5 449.5L797.5 449.5L826.5 478.5L855.5 478.5L884.5 478.5L913.5 478.5L942.5 478.5L971.5 478.5L1000.5 478.5" stroke="url(#SvgjsRadialGradient2396)" stroke-width="4.83"></path><path d="M993.25 478.5 a7.25 7.25 0 1 0 14.5 0 a7.25 7.25 0 1 0 -14.5 0zM326.25 449.5 a7.25 7.25 0 1 0 14.5 0 a7.25 7.25 0 1 0 -14.5 0zM94.25 391.5 a7.25 7.25 0 1 0 14.5 0 a7.25 7.25 0 1 0 -14.5 0zM819.25 507.5 a7.25 7.25 0 1 0 14.5 0 a7.25 7.25 0 1 0 -14.5 0zM1022.25 449.5 a7.25 7.25 0 1 0 14.5 0 a7.25 7.25 0 1 0 -14.5 0zM587.25 449.5 a7.25 7.25 0 1 0 14.5 0 a7.25 7.25 0 1 0 -14.5 0zM1022.25 420.5 a7.25 7.25 0 1 0 14.5 0 a7.25 7.25 0 1 0 -14.5 0zM848.25 391.5 a7.25 7.25 0 1 0 14.5 0 a7.25 7.25 0 1 0 -14.5 0zM848.25 449.5 a7.25 7.25 0 1 0 14.5 0 a7.25 7.25 0 1 0 -14.5 0zM558.25 478.5 a7.25 7.25 0 1 0 14.5 0 a7.25 7.25 0 1 0 -14.5 0z" fill="url(#SvgjsRadialGradient2396)"></path><path d="M739.5 101.5L768.5 72.5L797.5 72.5L826.5 72.5L855.5 72.5L884.5 72.5L913.5 72.5L942.5 72.5L971.5 72.5M536.5 101.5L565.5 101.5L594.5 101.5L623.5 101.5L652.5 101.5M1000.5 101.5L1029.5 72.5M652.5 72.5L681.5 72.5L710.5 72.5L739.5 72.5M304.5 130.5L333.5 130.5M-14.5 188.5L14.5 188.5L43.5 188.5L72.5 188.5L101.5 159.5L130.5 159.5L159.5 159.5L188.5 159.5L217.5 159.5L246.5 159.5L275.5 159.5L304.5 130.5L333.5 101.5L362.5 101.5L391.5 101.5L420.5 101.5L449.5 101.5L478.5 101.5L507.5 101.5L536.5 101.5L565.5 72.5L594.5 72.5L623.5 72.5L652.5 72.5L681.5 101.5L710.5 101.5L739.5 101.5L768.5 101.5L797.5 101.5L826.5 101.5L855.5 101.5L884.5 101.5L913.5 101.5L942.5 101.5L971.5 101.5L1000.5 101.5L1029.5 101.5" stroke="url(#SvgjsRadialGradient2396)" stroke-width="4.83"></path><path d="M1022.25 101.5 a7.25 7.25 0 1 0 14.5 0 a7.25 7.25 0 1 0 -14.5 0zM964.25 72.5 a7.25 7.25 0 1 0 14.5 0 a7.25 7.25 0 1 0 -14.5 0zM645.25 101.5 a7.25 7.25 0 1 0 14.5 0 a7.25 7.25 0 1 0 -14.5 0zM1022.25 72.5 a7.25 7.25 0 1 0 14.5 0 a7.25 7.25 0 1 0 -14.5 0zM732.25 72.5 a7.25 7.25 0 1 0 14.5 0 a7.25 7.25 0 1 0 -14.5 0zM326.25 130.5 a7.25 7.25 0 1 0 14.5 0 a7.25 7.25 0 1 0 -14.5 0z" fill="url(#SvgjsRadialGradient2396)"></path><path d="M101.5 449.5L130.5 478.5L159.5 507.5L188.5 507.5M159.5 449.5L188.5 478.5L217.5 478.5M246.5 478.5L275.5 507.5M594.5 507.5L623.5 478.5L652.5 478.5M217.5 449.5L246.5 449.5M-14.5 391.5L14.5 391.5L43.5 420.5L72.5 449.5L101.5 449.5L130.5 449.5L159.5 449.5L188.5 449.5L217.5 449.5L246.5 478.5L275.5 478.5L304.5 478.5L333.5 507.5L362.5 507.5L391.5 507.5L420.5 507.5L449.5 507.5L478.5 507.5L507.5 507.5L536.5 507.5L565.5 507.5L594.5 507.5L623.5 507.5" stroke="url(#SvgjsRadialGradient2396)" stroke-width="4.83"></path><path d="M616.25 507.5 a7.25 7.25 0 1 0 14.5 0 a7.25 7.25 0 1 0 -14.5 0zM181.25 507.5 a7.25 7.25 0 1 0 14.5 0 a7.25 7.25 0 1 0 -14.5 0zM210.25 478.5 a7.25 7.25 0 1 0 14.5 0 a7.25 7.25 0 1 0 -14.5 0zM268.25 507.5 a7.25 7.25 0 1 0 14.5 0 a7.25 7.25 0 1 0 -14.5 0zM645.25 478.5 a7.25 7.25 0 1 0 14.5 0 a7.25 7.25 0 1 0 -14.5 0zM239.25 449.5 a7.25 7.25 0 1 0 14.5 0 a7.25 7.25 0 1 0 -14.5 0z" fill="url(#SvgjsRadialGradient2396)"></path><path d="M14.5 159.5L43.5 130.5L72.5 101.5M246.5 130.5L275.5 101.5L304.5 72.5M217.5 130.5L246.5 101.5M188.5 130.5L217.5 101.5L246.5 72.5L275.5 72.5M101.5 130.5L130.5 101.5L159.5 101.5L188.5 101.5M-14.5 159.5L14.5 159.5L43.5 159.5L72.5 130.5L101.5 130.5L130.5 130.5L159.5 130.5L188.5 130.5L217.5 130.5L246.5 130.5L275.5 130.5L304.5 101.5L333.5 72.5L362.5 72.5L391.5 72.5L420.5 72.5L449.5 72.5L478.5 72.5L507.5 72.5L536.5 72.5" stroke="url(#SvgjsRadialGradient2396)" stroke-width="4.83"></path><path d="M529.25 72.5 a7.25 7.25 0 1 0 14.5 0 a7.25 7.25 0 1 0 -14.5 0zM65.25 101.5 a7.25 7.25 0 1 0 14.5 0 a7.25 7.25 0 1 0 -14.5 0zM297.25 72.5 a7.25 7.25 0 1 0 14.5 0 a7.25 7.25 0 1 0 -14.5 0zM239.25 101.5 a7.25 7.25 0 1 0 14.5 0 a7.25 7.25 0 1 0 -14.5 0zM268.25 72.5 a7.25 7.25 0 1 0 14.5 0 a7.25 7.25 0 1 0 -14.5 0zM181.25 101.5 a7.25 7.25 0 1 0 14.5 0 a7.25 7.25 0 1 0 -14.5 0z" fill="url(#SvgjsRadialGradient2396)"></path></g></g><defs><mask id="SvgjsMask2394"><rect width="1440" height="560" fill="#ffffff"></rect></mask><linearGradient x1="15.28%" y1="-39.29%" x2="84.72%" y2="139.29%" gradientUnits="userSpaceOnUse" id="SvgjsLinearGradient2395"><stop stop-color="rgba(9, 34, 59, 1)" offset="0"></stop><stop stop-color="rgba(5, 63, 137, 1)" offset="1"></stop></linearGradient><radialGradient cx="0" cy="0" r="1280.9" gradientUnits="userSpaceOnUse" id="SvgjsRadialGradient2396"><stop stop-color="rgba(38, 85, 135, 1)" offset="0"></stop><stop stop-color="rgba(27, 59, 112, 1)" offset="1"></stop></radialGradient><mask id="SvgjsMask2397"><rect width="1440" height="560" fill="white"></rect><path d="M648.87 246.5 a3.63 3.63 0 1 0 7.26 0 a3.63 3.63 0 1 0 -7.26 0zM735.87 188.5 a3.63 3.63 0 1 0 7.26 0 a3.63 3.63 0 1 0 -7.26 0zM242.87 304.5 a3.63 3.63 0 1 0 7.26 0 a3.63 3.63 0 1 0 -7.26 0zM503.87 217.5 a3.63 3.63 0 1 0 7.26 0 a3.63 3.63 0 1 0 -7.26 0zM416.87 304.5 a3.63 3.63 0 1 0 7.26 0 a3.63 3.63 0 1 0 -7.26 0zM155.87 304.5 a3.63 3.63 0 1 0 7.26 0 a3.63 3.63 0 1 0 -7.26 0zM648.87 275.5 a3.63 3.63 0 1 0 7.26 0 a3.63 3.63 0 1 0 -7.26 0z" fill="black"></path><path d="M39.87 333.5 a3.63 3.63 0 1 0 7.26 0 a3.63 3.63 0 1 0 -7.26 0zM97.87 304.5 a3.63 3.63 0 1 0 7.26 0 a3.63 3.63 0 1 0 -7.26 0z" fill="black"></path><path d="M996.87 130.5 a3.63 3.63 0 1 0 7.26 0 a3.63 3.63 0 1 0 -7.26 0zM300.87 246.5 a3.63 3.63 0 1 0 7.26 0 a3.63 3.63 0 1 0 -7.26 0zM677.87 159.5 a3.63 3.63 0 1 0 7.26 0 a3.63 3.63 0 1 0 -7.26 0zM213.87 246.5 a3.63 3.63 0 1 0 7.26 0 a3.63 3.63 0 1 0 -7.26 0zM416.87 188.5 a3.63 3.63 0 1 0 7.26 0 a3.63 3.63 0 1 0 -7.26 0zM416.87 130.5 a3.63 3.63 0 1 0 7.26 0 a3.63 3.63 0 1 0 -7.26 0zM532.87 130.5 a3.63 3.63 0 1 0 7.26 0 a3.63 3.63 0 1 0 -7.26 0zM184.87 246.5 a3.63 3.63 0 1 0 7.26 0 a3.63 3.63 0 1 0 -7.26 0zM155.87 246.5 a3.63 3.63 0 1 0 7.26 0 a3.63 3.63 0 1 0 -7.26 0zM329.87 188.5 a3.63 3.63 0 1 0 7.26 0 a3.63 3.63 0 1 0 -7.26 0z" fill="black"></path><path d="M677.87 304.5 a3.63 3.63 0 1 0 7.26 0 a3.63 3.63 0 1 0 -7.26 0zM329.87 333.5 a3.63 3.63 0 1 0 7.26 0 a3.63 3.63 0 1 0 -7.26 0zM242.87 391.5 a3.63 3.63 0 1 0 7.26 0 a3.63 3.63 0 1 0 -7.26 0zM300.87 333.5 a3.63 3.63 0 1 0 7.26 0 a3.63 3.63 0 1 0 -7.26 0zM416.87 391.5 a3.63 3.63 0 1 0 7.26 0 a3.63 3.63 0 1 0 -7.26 0zM387.87 333.5 a3.63 3.63 0 1 0 7.26 0 a3.63 3.63 0 1 0 -7.26 0zM126.87 391.5 a3.63 3.63 0 1 0 7.26 0 a3.63 3.63 0 1 0 -7.26 0z" fill="black"></path><path d="M10.87 217.5 a3.63 3.63 0 1 0 7.26 0 a3.63 3.63 0 1 0 -7.26 0z" fill="black"></path><path d="M996.87 478.5 a3.63 3.63 0 1 0 7.26 0 a3.63 3.63 0 1 0 -7.26 0zM329.87 449.5 a3.63 3.63 0 1 0 7.26 0 a3.63 3.63 0 1 0 -7.26 0zM97.87 391.5 a3.63 3.63 0 1 0 7.26 0 a3.63 3.63 0 1 0 -7.26 0zM822.87 507.5 a3.63 3.63 0 1 0 7.26 0 a3.63 3.63 0 1 0 -7.26 0zM1025.87 449.5 a3.63 3.63 0 1 0 7.26 0 a3.63 3.63 0 1 0 -7.26 0zM590.87 449.5 a3.63 3.63 0 1 0 7.26 0 a3.63 3.63 0 1 0 -7.26 0zM1025.87 420.5 a3.63 3.63 0 1 0 7.26 0 a3.63 3.63 0 1 0 -7.26 0zM851.87 391.5 a3.63 3.63 0 1 0 7.26 0 a3.63 3.63 0 1 0 -7.26 0zM851.87 449.5 a3.63 3.63 0 1 0 7.26 0 a3.63 3.63 0 1 0 -7.26 0zM561.87 478.5 a3.63 3.63 0 1 0 7.26 0 a3.63 3.63 0 1 0 -7.26 0z" fill="black"></path><path d="M1025.87 101.5 a3.63 3.63 0 1 0 7.26 0 a3.63 3.63 0 1 0 -7.26 0zM967.87 72.5 a3.63 3.63 0 1 0 7.26 0 a3.63 3.63 0 1 0 -7.26 0zM648.87 101.5 a3.63 3.63 0 1 0 7.26 0 a3.63 3.63 0 1 0 -7.26 0zM1025.87 72.5 a3.63 3.63 0 1 0 7.26 0 a3.63 3.63 0 1 0 -7.26 0zM735.87 72.5 a3.63 3.63 0 1 0 7.26 0 a3.63 3.63 0 1 0 -7.26 0zM329.87 130.5 a3.63 3.63 0 1 0 7.26 0 a3.63 3.63 0 1 0 -7.26 0z" fill="black"></path><path d="M619.87 507.5 a3.63 3.63 0 1 0 7.26 0 a3.63 3.63 0 1 0 -7.26 0zM184.87 507.5 a3.63 3.63 0 1 0 7.26 0 a3.63 3.63 0 1 0 -7.26 0zM213.87 478.5 a3.63 3.63 0 1 0 7.26 0 a3.63 3.63 0 1 0 -7.26 0zM271.87 507.5 a3.63 3.63 0 1 0 7.26 0 a3.63 3.63 0 1 0 -7.26 0zM648.87 478.5 a3.63 3.63 0 1 0 7.26 0 a3.63 3.63 0 1 0 -7.26 0zM242.87 449.5 a3.63 3.63 0 1 0 7.26 0 a3.63 3.63 0 1 0 -7.26 0z" fill="black"></path><path d="M532.87 72.5 a3.63 3.63 0 1 0 7.26 0 a3.63 3.63 0 1 0 -7.26 0zM68.87 101.5 a3.63 3.63 0 1 0 7.26 0 a3.63 3.63 0 1 0 -7.26 0zM300.87 72.5 a3.63 3.63 0 1 0 7.26 0 a3.63 3.63 0 1 0 -7.26 0zM242.87 101.5 a3.63 3.63 0 1 0 7.26 0 a3.63 3.63 0 1 0 -7.26 0zM271.87 72.5 a3.63 3.63 0 1 0 7.26 0 a3.63 3.63 0 1 0 -7.26 0zM184.87 101.5 a3.63 3.63 0 1 0 7.26 0 a3.63 3.63 0 1 0 -7.26 0z" fill="black"></path></mask></defs></svg>